<svg xmlns="http://www.w3.org/2000/svg" fill="none" viewBox="0 0 717 164" height="164" width="717">
<g clip-path="url(#clip0_428_10802)">
<path fill="#0A3655" d="M103.762 133.675C85.5743 133.675 68.4881 126.75 55.6287 114.193L0.170837 59.9606L10.6346 49.731L66.1062 104.005C76.1569 113.808 89.5257 119.205 103.748 119.205C117.971 119.205 131.381 113.794 141.431 103.95C146.718 98.828 150.78 92.6736 153.506 85.6519L164.713 96.6113C161.381 103.206 157.072 109.113 151.895 114.166C139.05 126.736 121.95 133.647 103.762 133.647V133.675Z"></path>
<path fill="#0A3655" d="M141.473 30.2908C131.409 20.4604 118.026 15.0357 103.79 15.0357C89.554 15.0357 76.1576 20.4466 66.1069 30.2908C60.82 35.4125 56.7584 41.5669 54.0323 48.5886L42.8251 37.6292C46.1294 31.0893 50.4113 25.2104 55.5468 20.1712L55.6982 20.0749C68.5301 7.51837 85.6163 0.593018 103.804 0.593018C121.992 0.593018 139.078 7.51837 151.937 20.0886L207.395 74.3074L196.931 84.5371L141.473 30.3046V30.2908Z"></path>
<path fill="#0A3655" d="M125.13 46.2616C119.43 40.6855 111.844 37.6152 103.776 37.6152C95.7075 37.6152 88.1213 40.6855 82.4213 46.2616C76.6111 51.9478 73.4307 59.7406 73.6235 67.7674L60.5851 55.0181C62.6365 47.8725 66.5742 41.3189 71.9575 36.0457C80.4524 27.7573 91.7698 23.1863 103.803 23.1863C115.836 23.1863 127.126 27.7573 135.607 36.0457L191.065 90.2644L180.602 100.494L125.13 46.2616Z"></path>
<path fill="#0A3655" d="M103.762 111.123C91.7291 111.123 80.4393 106.552 71.9582 98.2636L16.5003 44.0449L26.9641 33.8152L82.4357 88.0477C88.1357 93.6238 95.7219 96.6941 103.79 96.6941C111.858 96.6941 119.444 93.6238 125.144 88.0477C130.954 82.3615 134.135 74.5687 133.942 66.5419L146.98 79.2912C144.929 86.4368 140.991 92.9904 135.608 98.2636C127.113 106.552 115.796 111.123 103.762 111.123Z"></path>
</g>
<g clip-path="url(#clip1_428_10802)">
<path fill="#0A3655" d="M309.616 131.896C271.846 131.896 244.265 103.993 244.265 65.8561C244.265 27.7192 271.846 0 309.616 0C347.386 0 374.6 27.7651 374.6 65.8561C374.6 103.947 347.018 131.896 309.616 131.896ZM309.616 110.785C333.251 110.785 350.047 91.8314 350.047 65.8561C350.047 39.8808 333.205 20.9271 309.616 20.9271C286.027 20.9271 268.771 40.1103 268.771 65.8561C268.771 91.602 285.752 110.785 309.57 110.785H309.616ZM389.102 163.929V37.5862H411.635V53.7404C415.032 46.627 426.826 36.1635 439.355 36.1635C439.355 36.1635 438.896 36.1635 440.456 36.1635C466.936 36.1635 482.677 55.8515 482.677 83.9379C482.677 112.024 465.284 131.024 440.548 131.024H439.951C430.176 131.024 414.986 123.727 411.635 113.676V163.975H389.102V163.929ZM435.087 112.07C449.589 112.07 459.593 100.781 459.593 83.6166C459.593 66.4527 449.589 55.3467 435.087 55.3467C420.585 55.3467 410.213 66.6363 410.213 83.6166C410.213 100.597 420.217 112.07 435.087 112.07ZM547.432 37.5862V56.3563H525.771V110.923L547.432 111.106V131.85H534.399C515.261 131.85 503.237 122.855 503.237 102.111V56.3104H487.496V41.2117C487.496 41.2117 498.235 41.2576 504.339 35.3833C510.443 29.509 510.03 18.403 510.03 18.403V15.3282H525.817V37.5403H547.478L547.432 37.5862ZM620.172 58.0085H610.305C597.226 58.0085 585.064 62.8731 585.064 90.8218V131.942H562.531V37.5862H585.064V56.1268C589.195 45.5715 600.117 35.8881 611.361 36.1635H620.264L620.126 58.0085H620.172ZM669.186 131.896C641.604 131.896 621.778 111.657 621.778 83.9379C621.778 56.2186 641.65 36.1635 669.186 36.1635C696.721 36.1635 716.639 56.4022 716.639 83.9379C716.639 111.474 696.584 131.896 669.186 131.896ZM669.186 112.391C683.688 112.391 693.692 100.781 693.692 83.9379C693.692 67.0952 683.504 55.6679 669.186 55.6679C654.867 55.6679 644.862 67.2788 644.862 83.9379C644.862 100.597 654.362 112.391 669.186 112.391Z"></path>
</g>
<defs>
<clipPath id="clip0_428_10802">
<rect transform="translate(0.170959 0.593018)" fill="white" height="133.082" width="207.224"></rect>
</clipPath>
<clipPath id="clip1_428_10802">
<rect transform="translate(244.265)" fill="white" height="163.929" width="472.374"></rect>
</clipPath>
</defs>
</svg>
