<svg xmlns="http://www.w3.org/2000/svg" fill="none" viewBox="0 0 207 134"><path fill="#0A3655" d="M103.591 133.082C85.404 133.082 68.317 126.157 55.458 113.6L0 59.368l10.464-10.23L65.935 103.41c10.051 9.803 23.42 15.2 37.642 15.2 14.223 0 27.633-5.411 37.683-15.255 5.288-5.122 9.35-11.276 12.075-18.298l11.207 10.96c-3.332 6.594-7.641 12.501-12.818 17.554-12.846 12.57-29.945 19.481-48.133 19.481zM141.302 29.698C131.238 19.867 117.855 14.443 103.62 14.443c-14.236 0-27.633 5.411-37.683 15.255-5.287 5.122-9.349 11.276-12.075 18.298L42.655 37.036c3.304-6.54 7.586-12.418 12.722-17.458l.15-.096C68.358 6.925 85.444 0 103.633 0c18.188 0 35.275 6.925 48.133 19.495L207.224 73.714l-10.464 10.23L141.302 29.7zM124.96 45.669c-5.7-5.576-13.286-8.647-21.354-8.647s-15.655 3.071-21.355 8.647c-5.81 5.686-8.99 13.479-8.797 21.506L60.414 54.425c2.051-7.146 5.989-13.7 11.372-18.973C80.282 27.164 91.6 22.593 103.633 22.593s23.323 4.571 31.804 12.859l55.458 54.219-10.463 10.23-55.472-54.232zM103.591 110.53c-12.033 0-23.323-4.57-31.804-12.86L16.33 43.452 26.793 33.222 82.265 87.455c5.7 5.576 13.286 8.646 21.354 8.646 8.069 0 15.655-3.07 21.355-8.646 5.81-5.687 8.991-13.48 8.797-21.506l13.039 12.749c-2.052 7.146-5.99 13.7-11.373 18.973-8.495 8.288-19.813 12.859-31.846 12.859z"/></svg>
